<svg width="24" height="24" viewBox="0 0 24 24" fill="none" xmlns="http://www.w3.org/2000/svg">
<path d="M12.9375 2.5C17.9375 2.5 22 6.5625 22 11.5625C22 12.1094 21.5703 12.5 21.0625 12.5C20.5156 12.5 20.125 12.1094 20.125 11.5625C20.125 7.61719 16.8828 4.375 12.9375 4.375C12.3906 4.375 12 3.98438 12 3.4375C12 2.92969 12.3906 2.5 12.9375 2.5ZM13.25 10C13.9141 10 14.5 10.5859 14.5 11.25C14.5 11.9531 13.9141 12.5 13.25 12.5C12.5469 12.5 12 11.9531 12 11.25C12 10.5859 12.5469 10 13.25 10ZM12 7.1875C12 6.67969 12.3906 6.25 12.9375 6.25C15.8672 6.25 18.25 8.63281 18.25 11.5625C18.25 12.1094 17.8203 12.5 17.3125 12.5C16.7656 12.5 16.375 12.1094 16.375 11.5625C16.375 9.6875 14.8125 8.125 12.9375 8.125C12.3906 8.125 12 7.73438 12 7.1875ZM6.57031 2.57812C7.3125 2.38281 8.13281 2.73438 8.40625 3.47656L9.96875 7.22656C10.2422 7.85156 10.0859 8.59375 9.53906 9.02344L7.625 10.625C8.91406 13.3594 11.1406 15.5859 13.875 16.875L15.4766 14.9609C15.9062 14.4141 16.6484 14.2578 17.2734 14.5312L21.0234 16.0938C21.7266 16.3672 22.1172 17.1875 21.9219 17.9297L20.9844 21.3672C20.7891 22.0312 20.2031 22.5 19.5 22.5C9.8125 22.5 2 14.6875 2 5C2 4.29688 2.46875 3.71094 3.13281 3.51562L6.57031 2.57812Z" fill="#525D6A"/>
</svg>
