<svg width="24" height="24" viewBox="0 0 24 24" fill="none" xmlns="http://www.w3.org/2000/svg">
<g clip-path="url(#clip0_565_15124)">
<path d="M19.1719 6.42188L13.5469 12.0469L19.125 17.625C19.5938 18.0469 19.5938 18.75 19.125 19.1719C18.7031 19.6406 18 19.6406 17.5781 19.1719L11.9531 13.5938L6.375 19.1719C5.95312 19.6406 5.25 19.6406 4.82812 19.1719C4.35938 18.75 4.35938 18.0469 4.82812 17.5781L10.4062 12L4.82812 6.42188C4.35938 6 4.35938 5.29688 4.82812 4.82812C5.25 4.40625 5.95312 4.40625 6.42188 4.82812L12 10.4531L17.5781 4.875C18 4.40625 18.7031 4.40625 19.1719 4.875C19.5938 5.29688 19.5938 6 19.1719 6.42188Z" fill="#525D6A"/>
</g>
<defs>
<clipPath id="clip0_565_15124">
<rect width="24" height="24" fill="white"/>
</clipPath>
</defs>
</svg>
