<svg width="24" height="24" viewBox="0 0 24 24" fill="none" xmlns="http://www.w3.org/2000/svg">
    <path
        d="M16.7266 6.64062L21.5312 11.4453C21.8047 11.7188 22 12.1094 22 12.5C22 12.9297 21.8047 13.3203 21.5312 13.5938L16.7266 18.3984C16.4922 18.6328 16.1406 18.75 15.7891 18.75C15.0859 18.75 14.5 18.1641 14.5 17.4609V15H9.5C8.79688 15 8.25 14.4531 8.25 13.75V11.25C8.25 10.5859 8.79688 10 9.5 10H14.5V7.57812C14.5 6.875 15.0859 6.25 15.7891 6.25C16.1406 6.25 16.4922 6.40625 16.7266 6.64062ZM8.25 6.25H5.75C5.04688 6.25 4.5 6.83594 4.5 7.5V17.5C4.5 18.2031 5.04688 18.75 5.75 18.75H8.25C8.91406 18.75 9.5 19.3359 9.5 20C9.5 20.7031 8.91406 21.25 8.25 21.25H5.75C3.67969 21.25 2 19.5703 2 17.5V7.5C2 5.42969 3.67969 3.75 5.75 3.75H8.25C8.91406 3.75 9.5 4.33594 9.5 5C9.5 5.70312 8.91406 6.25 8.25 6.25Z"
        fill="#525D6A" />
</svg>
